HIERARCHY
ROOT Hips
{
	OFFSET 0.000000 0.000000 0.000000
	CHANNELS 6 Xposition Yposition Zposition Zrotation Yrotation Xrotation 
	JOINT LowerBack
	{
		OFFSET 0.000000 0.000000 0.000000
		CHANNELS 3 Zrotation Yrotation Xrotation
		JOINT Spine
		{
			OFFSET 0.028270 2.035590 -0.193380
			CHANNELS 3 Zrotation Yrotation Xrotation
			JOINT Spine1
			{
				OFFSET 0.056720 2.048850 -0.042750
				CHANNELS 3 Zrotation Yrotation Xrotation
				JOINT Neck
				{
					OFFSET 0.000000 0.000000 0.000000
					CHANNELS 3 Zrotation Yrotation Xrotation
					JOINT Neck1
					{
						OFFSET -0.054170 1.746240 0.172020
						CHANNELS 3 Zrotation Yrotation Xrotation
						JOINT Head
						{
							OFFSET 0.104070 1.761360 -0.123970
							CHANNELS 3 Zrotation Yrotation Xrotation
							End Site
							{
								OFFSET 0.000000 0.000000 0.000000
							}
						}
					}
				}
				JOINT LeftShoulder
				{
					OFFSET 0.000000 0.000000 0.000000
					CHANNELS 3 Zrotation Yrotation Xrotation
					JOINT LeftArm
					{
						OFFSET 3.362410 1.200890 -0.311210
						CHANNELS 3 Zrotation Yrotation Xrotation
						JOINT LeftForeArm
						{
							OFFSET 4.983000 -0.000000 -0.000000
							CHANNELS 3 Zrotation Yrotation Xrotation
							JOINT LeftHand
							{
								OFFSET 3.483560 -0.000000 -0.000000
								CHANNELS 3 Zrotation Yrotation Xrotation
								JOINT LeftFingerBase
								{
									OFFSET 0.000000 0.000000 0.000000
									CHANNELS 3 Zrotation Yrotation Xrotation
									JOINT LeftHandIndex1
									{
										OFFSET 0.715260 -0.000000 -0.000000
										CHANNELS 3 Zrotation Yrotation Xrotation
										End Site
										{
											OFFSET 0.000000 0.000000 0.000000
										}
									}
								}
								JOINT LThumb
								{
									OFFSET 0.000000 0.000000 0.000000
									CHANNELS 3 Zrotation Yrotation Xrotation
									End Site
									{
										OFFSET 0.000000 0.000000 0.000000
									}
								}
							}
						}
					}
				}
				JOINT RightShoulder
				{
					OFFSET 0.000000 0.000000 0.000000
					CHANNELS 3 Zrotation Yrotation Xrotation
					JOINT RightArm
					{
						OFFSET -3.136600 1.374050 -0.404650
						CHANNELS 3 Zrotation Yrotation Xrotation
						JOINT RightForeArm
						{
							OFFSET -5.241900 -0.000000 -0.000000
							CHANNELS 3 Zrotation Yrotation Xrotation
							JOINT RightHand
							{
								OFFSET -3.444170 -0.000000 -0.000000
								CHANNELS 3 Zrotation Yrotation Xrotation
								JOINT RightFingerBase
								{
									OFFSET 0.000000 0.000000 0.000000
									CHANNELS 3 Zrotation Yrotation Xrotation
									JOINT RightHandIndex1
									{
										OFFSET -0.622530 -0.000000 -0.000000
										CHANNELS 3 Zrotation Yrotation Xrotation
										End Site
										{
											OFFSET 0.000000 0.000000 0.000000
										}
									}
								}
								JOINT RThumb
								{
									OFFSET 0.000000 0.000000 0.000000
									CHANNELS 3 Zrotation Yrotation Xrotation
									End Site
									{
										OFFSET 0.000000 0.000000 0.000000
									}
								}
							}
						}
					}
				}
			}
		}
	}
}
}
MOTION
Frames: 17
Frame Time: 0.008333
-13.720839 16.690657 0.309508 -0.502505 79.416816 20.905806 -7.387584 1.660933 3.752455 -2.926005 1.977901 -2.552316 -8.545949 1.832361 0.034645 11.871011 8.461168 5.143417 -5.602560 -0.478103 2.885133 0.000000 0.000000 0.000000 -6.022547 0.740862 1.815717 -58.789406 -3.317455 12.102729 -3.823777 -17.895817 -0.002435 2.449619 2.602490 0.057929 -0.076534 -0.013687 0.000000 0.000000 0.000000 0.000000 0.000000 0.000000 0.000000 25.759322 7.523562 -0.676817 73.665628 15.889881 11.074182 2.457535 24.290112 0.004863 4.073700 8.917118 0.323368 -0.019205 -0.104193 -0.000000 0.000000 0.000000 0.000000 0.000000 0.000000 0.000000 
-13.574740 16.710650 0.316989 1.469607 79.293809 22.841454 -7.911729 1.562834 3.797980 -3.029402 1.900918 -2.538206 -8.533585 1.755311 0.028575 11.819520 8.536328 5.203934 -5.590429 -0.477954 2.894270 0.000000 0.000000 0.000000 -5.863493 0.465533 1.829887 -58.833270 -3.351626 11.969963 -3.869355 -16.875896 -0.002952 2.303598 2.879160 0.060316 -0.076374 -0.011320 0.000000 0.000000 0.000000 0.000000 0.000000 0.000000 0.000000 25.647229 7.485929 -0.677495 74.161191 15.465247 8.876577 2.467755 22.701482 0.004606 3.686674 8.864340 0.290571 -0.014654 -0.099636 -0.000000 0.000000 0.000000 0.000000 0.000000 0.000000 0.000000 
-13.432493 16.733513 0.319909 3.061134 79.159627 24.403114 -8.322143 1.478464 3.865084 -3.107394 1.832890 -2.519120 -8.504154 1.687680 0.021461 11.679035 8.631330 5.263335 -5.566151 -0.477028 2.904415 0.000000 0.000000 0.000000 -5.766451 0.190383 1.847687 -58.911294 -3.490159 11.837098 -3.912453 -15.850655 -0.003508 2.126128 3.164361 0.061206 -0.076367 -0.008019 0.000000 0.000000 0.000000 0.000000 0.000000 0.000000 0.000000 25.391115 7.479355 -0.674272 74.626966 15.041178 6.624081 2.470369 21.212897 0.004382 3.167069 8.812721 0.247775 -0.009078 -0.095819 -0.000000 0.000000 0.000000 0.000000 0.000000 0.000000 0.000000 
-13.293940 16.758561 0.318378 4.314479 79.008262 25.627002 -8.632053 1.408307 3.954616 -3.163165 1.775074 -2.493556 -8.462294 1.630979 0.020378 11.455085 8.714231 5.307992 -5.536397 -0.475605 2.911523 0.000000 0.000000 0.000000 -5.723972 -0.067558 1.865859 -59.019347 -3.743198 11.702141 -3.951992 -14.835818 -0.004072 1.928274 3.448951 0.060599 -0.076446 -0.003929 0.000000 0.000000 0.000000 0.000000 0.000000 0.000000 0.000000 25.027866 7.470448 -0.666284 75.034412 14.644468 4.493453 2.467361 19.847326 0.004212 2.532421 8.764071 0.196679 -0.002541 -0.092737 -0.000000 0.000000 0.000000 0.000000 0.000000 0.000000 0.000000 
-13.158644 16.784992 0.311939 5.118741 78.832149 26.401982 -8.822413 1.356125 4.057501 -3.192558 1.730545 -2.467756 -8.411051 1.587318 0.011110 11.154769 8.838860 5.358154 -5.500539 -0.473809 2.921418 0.000000 0.000000 0.000000 -5.744573 -0.321126 1.889199 -59.151270 -4.061079 11.559905 -3.986049 -13.866385 -0.004599 1.726249 3.718517 0.058693 -0.076497 0.000740 0.000000 0.000000 0.000000 0.000000 0.000000 0.000000 0.000000 24.559367 7.519668 -0.650720 75.374302 14.196428 2.469042 2.462160 18.669301 0.004109 1.862878 8.698807 0.143182 0.004305 -0.090284 -0.000000 0.000000 0.000000 0.000000 0.000000 0.000000 0.000000 
-13.026181 16.812287 0.301217 5.559230 78.633442 26.809607 -8.916528 1.318510 4.175034 -3.201577 1.697234 -2.437115 -8.356968 1.555406 0.010895 10.789364 8.931755 5.386380 -5.468466 -0.471978 2.926003 0.000000 0.000000 0.000000 -5.813784 -0.543306 1.910287 -59.299277 -4.471565 11.421517 -4.013093 -12.955858 -0.005058 1.536962 3.963465 0.055890 -0.076410 0.005791 0.000000 0.000000 0.000000 0.000000 0.000000 0.000000 0.000000 24.042972 7.545660 -0.629605 75.624580 13.779488 0.782832 2.460364 17.641849 0.004098 1.183045 8.618637 0.089485 0.011569 -0.088246 -0.000000 0.000000 0.000000 0.000000 0.000000 0.000000 0.000000 
-12.896180 16.839885 0.286661 5.657472 78.414951 26.868523 -8.919371 1.293089 4.302178 -3.191234 1.673176 -2.405777 -8.302745 1.532586 0.008552 10.376266 9.039320 5.410955 -5.439572 -0.470191 2.930089 0.000000 0.000000 0.000000 -5.928246 -0.742977 1.933756 -59.454079 -4.938552 11.300990 -4.032333 -12.132183 -0.005420 1.378786 4.170121 0.052990 -0.076107 0.011051 0.000000 0.000000 0.000000 0.000000 0.000000 0.000000 0.000000 23.492511 7.597028 -0.602738 75.787911 13.332254 -0.626333 2.465566 16.798984 0.004179 0.587096 8.498041 0.042986 0.018521 -0.086345 -0.000000 0.000000 0.000000 0.000000 0.000000 0.000000 0.000000 
-12.768159 16.867438 0.269119 5.502747 78.183717 26.665662 -8.850838 1.274989 4.437880 -3.166323 1.654498 -2.373313 -8.252035 1.515054 0.006324 9.933711 9.150722 5.429966 -5.417340 -0.468599 2.932701 0.000000 0.000000 0.000000 -6.076068 -0.917883 1.958755 -59.607179 -5.453042 11.214613 -4.043085 -11.416222 -0.005676 1.267597 4.328603 0.050793 -0.075513 0.016337 0.000000 0.000000 0.000000 0.000000 0.000000 0.000000 0.000000 22.942748 7.658294 -0.571497 75.861095 12.868247 -1.722937 2.481378 16.123523 0.004356 0.131501 8.326101 0.008187 0.024833 -0.084296 -0.000000 0.000000 0.000000 0.000000 0.000000 0.000000 0.000000 
-12.641810 16.894712 0.249501 5.193217 77.949485 26.296883 -8.732895 1.258921 4.582433 -3.132329 1.636909 -2.337842 -8.208467 1.498822 0.010479 9.478923 9.232181 5.435214 -5.406333 -0.467378 2.931184 0.000000 0.000000 0.000000 -6.242781 -1.070205 1.982481 -59.751675 -6.007719 11.169469 -4.044796 -10.828213 -0.005823 1.216067 4.433520 0.049898 -0.074554 0.021456 0.000000 0.000000 0.000000 0.000000 0.000000 0.000000 0.000000 22.432201 7.688251 -0.537281 75.838050 12.428965 -2.445105 2.510499 15.577747 0.004629 -0.152481 8.098488 -0.012814 0.030361 -0.081819 -0.000000 0.000000 0.000000 0.000000 0.000000 0.000000 0.000000 
-12.516726 16.921578 0.228498 4.792927 77.724284 25.827832 -8.578714 1.240656 4.733013 -3.092524 1.616707 -2.299748 -8.174270 1.480174 0.021333 9.029122 9.279861 5.428760 -5.407905 -0.466600 2.925904 0.000000 0.000000 0.000000 -6.420013 -1.205528 2.004873 -59.881273 -6.590280 11.174624 -4.037707 -10.383851 -0.005876 1.231304 4.481350 0.050905 -0.073221 0.026286 0.000000 0.000000 0.000000 0.000000 0.000000 0.000000 0.000000 21.984172 7.678751 -0.501242 75.717606 12.016720 -2.815171 2.553626 15.154680 0.004975 -0.232433 7.805040 -0.018116 0.034820 -0.078671 -0.000000 0.000000 0.000000 0.000000 0.000000 0.000000 0.000000 
-12.393093 16.947954 0.207244 4.441573 77.519396 25.388755 -8.417814 1.213831 4.894524 -3.052667 1.588631 -2.260283 -8.148204 1.453514 0.028736 8.605153 9.338768 5.430089 -5.417940 -0.466147 2.921792 0.000000 0.000000 0.000000 -6.591688 -1.341041 2.030878 -59.993106 -7.177416 11.262361 -4.023371 -10.091770 -0.005854 1.320031 4.464392 0.054113 -0.071591 0.030725 0.000000 0.000000 0.000000 0.000000 0.000000 0.000000 0.000000 21.602428 7.673426 -0.463805 75.516950 11.593510 -2.978900 2.609199 14.851011 0.005356 -0.071057 7.459016 -0.006821 0.037705 -0.074789 -0.000000 0.000000 0.000000 0.000000 0.000000 0.000000 0.000000 
-12.270452 16.973831 0.185896 4.129077 77.349125 24.979467 -8.248447 1.177234 5.061173 -3.013301 1.551306 -2.217886 -8.133092 1.417895 0.043168 8.214640 9.357473 5.424491 -5.440264 -0.466140 2.915010 0.000000 0.000000 0.000000 -6.754839 -1.476287 2.055540 -60.084629 -7.775744 11.416194 -4.002145 -9.957508 -0.005785 1.476115 4.391388 0.059023 -0.069702 0.034717 0.000000 0.000000 0.000000 0.000000 0.000000 0.000000 0.000000 21.310477 7.614246 -0.426359 75.225841 11.209368 -2.868878 2.676456 14.645130 0.005727 0.298993 7.059939 0.016471 0.039259 -0.070050 -0.000000 0.000000 0.000000 0.000000 0.000000 0.000000 0.000000 
-12.148825 16.999225 0.164860 3.892709 77.224770 24.638257 -8.077444 1.128544 5.231977 -2.975628 1.502554 -2.173452 -8.128054 1.371027 0.061333 7.867078 9.351880 5.419665 -5.472008 -0.466474 2.907746 0.000000 0.000000 0.000000 -6.904894 -1.618675 2.080503 -60.154704 -8.378794 11.645678 -3.975828 -9.980917 -0.005698 1.690306 4.268148 0.065134 -0.067699 0.038272 0.000000 0.000000 0.000000 0.000000 0.000000 0.000000 0.000000 21.104506 7.516323 -0.389805 74.855294 10.847030 -2.572844 2.752039 14.541526 0.006024 0.855889 6.619746 0.047961 0.039449 -0.064522 -0.000000 0.000000 0.000000 0.000000 0.000000 0.000000 0.000000 
-12.028567 17.024154 0.144565 3.788327 77.154214 24.415005 -7.918348 1.066912 5.412786 -2.942179 1.441941 -2.126447 -8.131048 1.312462 0.079580 7.569709 9.326679 5.421636 -5.510159 -0.467047 2.901684 0.000000 0.000000 0.000000 -7.028080 -1.790120 2.106467 -60.211603 -8.974266 11.942394 -3.945284 -10.151184 -0.005609 1.961140 4.093735 0.071947 -0.065653 0.041354 0.000000 0.000000 0.000000 0.000000 0.000000 0.000000 0.000000 20.978819 7.383445 -0.353135 74.417141 10.509349 -2.155573 2.833734 14.517095 0.006210 1.574585 6.174618 0.083948 0.038331 -0.058427 -0.000000 0.000000 0.000000 0.000000 0.000000 0.000000 0.000000 
-11.909301 17.048533 0.124570 3.740845 77.143922 24.248413 -7.750447 0.993920 5.593288 -2.908468 1.370103 -2.078445 -8.141507 1.242825 0.100433 7.318666 9.279000 5.427817 -5.552846 -0.467759 2.896701 0.000000 0.000000 0.000000 -7.136592 -1.980115 2.132526 -60.252575 -9.572119 12.302836 -3.912353 -10.463032 -0.005546 2.262802 3.886984 0.078358 -0.063780 0.044097 0.000000 0.000000 0.000000 0.000000 0.000000 0.000000 0.000000 20.919219 7.214272 -0.318467 73.918344 10.189984 -1.648831 2.916960 14.584936 0.006237 2.381722 5.730065 0.118731 0.036343 -0.051960 -0.000000 0.000000 0.000000 0.000000 0.000000 0.000000 0.000000 
-11.791524 17.072333 0.105103 3.788325 77.194891 24.167940 -7.584741 0.911189 5.782692 -2.876466 1.289027 -2.027851 -8.156877 1.164213 0.121693 7.114671 9.203612 5.439063 -5.597555 -0.468510 2.893070 0.000000 0.000000 0.000000 -7.216930 -2.206228 2.158421 -60.289261 -10.168371 12.703390 -3.877989 -10.898758 -0.005517 2.585698 3.652948 0.083671 -0.062170 0.046558 0.000000 0.000000 0.000000 0.000000 0.000000 0.000000 0.000000 20.916387 7.005260 -0.284636 73.370655 9.898833 -1.089170 2.997792 14.724944 0.006100 3.221501 5.317937 0.149613 0.033793 -0.045475 -0.000000 0.000000 0.000000 0.000000 0.000000 0.000000 0.000000 
-11.675003 17.095413 0.085605 3.847863 77.304702 24.101609 -7.399946 0.821707 5.971398 -2.841162 1.200774 -1.976942 -8.175180 1.078526 0.142772 6.949457 9.112422 5.456189 -5.640919 -0.469151 2.891611 0.000000 0.000000 0.000000 -7.282760 -2.456074 2.184255 -60.321825 -10.772107 13.143930 -3.843684 -11.444105 -0.005533 2.906938 3.405189 0.087285 -0.061020 0.048897 0.000000 0.000000 0.000000 0.000000 0.000000 0.000000 0.000000 20.946138 6.773352 -0.253306 72.786549 9.618637 -0.524382 3.072547 14.942022 0.005822 4.029527 4.955110 0.174694 0.031084 -0.039295 -0.000000 0.000000 0.000000 0.000000 0.000000 0.000000 0.000000 
